<svg width="40" height="40" viewBox="0 0 40 40" fill="none" xmlns="http://www.w3.org/2000/svg">
  <defs>
    <linearGradient id="logoGradient" x1="0%" y1="0%" x2="100%" y2="100%">
      <stop offset="0%" style="stop-color:#06B6D4"/>
      <stop offset="100%" style="stop-color:#14B8A6"/>
    </linearGradient>
  </defs>
  <rect width="40" height="40" rx="10" fill="url(#logoGradient)"/>
  <path d="M20 8C13.373 8 8 13.373 8 20C8 26.627 13.373 32 20 32C26.627 32 32 26.627 32 20C32 13.373 26.627 8 20 8ZM20 10C25.523 10 30 14.477 30 20C30 25.523 25.523 30 20 30C14.477 30 10 25.523 10 20C10 14.477 14.477 10 20 10Z" fill="white" fill-opacity="0.3"/>
  <circle cx="15" cy="17" r="2" fill="white"/>
  <circle cx="25" cy="17" r="2" fill="white"/>
  <path d="M14 23C14 23 16 26 20 26C24 26 26 23 26 23" stroke="white" stroke-width="2" stroke-linecap="round"/>
  <path d="M20 12V14M16 13L17 15M24 13L23 15" stroke="white" stroke-width="1.5" stroke-linecap="round"/>
  <circle cx="20" cy="20" r="8" stroke="white" stroke-width="1" stroke-dasharray="2 2" fill="none" opacity="0.5"/>
</svg>
