<svg width="40" height="40" viewBox="0 0 40 40" fill="none" xmlns="http://www.w3.org/2000/svg">
  <defs>
    <linearGradient id="logoGradientDark" x1="0%" y1="0%" x2="100%" y2="100%">
      <stop offset="0%" style="stop-color:#06B6D4"/>
      <stop offset="100%" style="stop-color:#14B8A6"/>
    </linearGradient>
  </defs>
  <rect width="40" height="40" rx="10" fill="url(#logoGradientDark)"/>
  <g transform="translate(8, 8)">
    <!-- Brain outline -->
    <path d="M12 2C8.5 2 6 4.5 6 7.5C6 8.5 6.3 9.4 6.8 10.2C5.7 11 5 12.4 5 14C5 16.2 6.5 18 8.5 18.7C8.2 19.4 8 20.2 8 21C8 21.6 8.1 22.1 8.2 22.6C8.4 22.9 8.7 23 9 23H15C15.3 23 15.6 22.9 15.8 22.6C15.9 22.1 16 21.6 16 21C16 20.2 15.8 19.4 15.5 18.7C17.5 18 19 16.2 19 14C19 12.4 18.3 11 17.2 10.2C17.7 9.4 18 8.5 18 7.5C18 4.5 15.5 2 12 2Z" fill="white"/>
    <!-- Neural connections -->
    <circle cx="9" cy="8" r="1.5" fill="#06B6D4"/>
    <circle cx="15" cy="8" r="1.5" fill="#06B6D4"/>
    <circle cx="12" cy="12" r="1.5" fill="#14B8A6"/>
    <circle cx="9" cy="16" r="1.5" fill="#06B6D4"/>
    <circle cx="15" cy="16" r="1.5" fill="#06B6D4"/>
    <!-- Connection lines -->
    <path d="M9 8L12 12L15 8M9 16L12 12L15 16" stroke="#0891B2" stroke-width="0.75" fill="none"/>
  </g>
</svg>
